<?xml version="1.0" encoding="UTF-8"?>
<svg version="1.1" xmlns="http://www.w3.org/2000/svg" width="242" height="206">
<path d="M0 0 C5.7423781 5.07465972 8.9054797 12.70604759 9.4375 20.3125 C10.13954054 24.91476576 11.6114382 25.91948927 15 29 C21.8621244 37.34691155 23.74432179 48.43615192 23 59 C22.45678442 62.51364304 21.71647955 65.96936994 20.9375 69.4375 C20.54470938 71.20569336 20.1576831 72.97518037 19.77734375 74.74609375 C19.60452881 75.51622803 19.43171387 76.2863623 19.25366211 77.07983398 C18.80682754 79.08073973 18.80682754 79.08073973 20 81 C20.72770297 88.33940428 20.77054534 94.33381274 16.484375 100.51171875 C13.75147472 103.25181087 11.60011006 103.97691884 7.75 104.125 C6.8425 104.08375 5.935 104.0425 5 104 C5 104.99 5 105.98 5 107 C5.66 106.67 6.32 106.34 7 106 C13.63878794 105.21234719 13.63878794 105.21234719 17.01171875 107.1640625 C20.4057451 109.9390526 23.27475233 112.54490718 24 117 C23.76027901 120.97355698 23.22532395 124.55684068 20.59375 127.65625 C16.93852725 130.73810447 14.89759747 132.02895476 10.125 131.875 C6.76484179 131.77564812 6.76484179 131.77564812 3.9375 133.5625 C2 135 2 135 -1.625 134.9375 C-5 134 -5 134 -6.4375 131.9375 C-6.623125 131.298125 -6.80875 130.65875 -7 130 C-7.66 130 -8.32 130 -9 130 C-8.01 139.9 -8.01 139.9 -7 150 C-8.65 150.33 -10.3 150.66 -12 151 C-13.95151627 149.04848373 -13.70968749 145.54831255 -14.0625 142.9375 C-14.32740234 141.00197266 -14.32740234 141.00197266 -14.59765625 139.02734375 C-14.73042969 138.02832031 -14.86320312 137.02929688 -15 136 C-15.51949219 136.34933594 -16.03898437 136.69867188 -16.57421875 137.05859375 C-17.27160156 137.51363281 -17.96898437 137.96867188 -18.6875 138.4375 C-19.37199219 138.88996094 -20.05648437 139.34242188 -20.76171875 139.80859375 C-26.8430117 143.04558214 -34.97511526 142.88559679 -41.57421875 141.43359375 C-45.8320629 140.08938179 -48.32304959 138.75771281 -52 136 C-52.99 140.95 -53.98 145.9 -55 151 C-56.65 151 -58.3 151 -60 151 C-60.07462239 147.19425807 -60.09386654 143.62968807 -59.53125 139.85546875 C-58.46329928 133.6336624 -58.46329928 133.6336624 -60.28125 127.84375 C-61.49737465 126.58495431 -62.74269379 125.35388405 -64.01171875 124.1484375 C-69.73449919 117.96468653 -72.50319231 109.28207417 -73.28515625 101.0234375 C-72.91951459 98.42888433 -71.84246773 97.78563068 -70 96 C-69.62277645 92.03915272 -69.48416155 89.30679073 -70.9375 85.625 C-73.26427692 83.79178182 -74.55996596 83.61720977 -77.4375 83.125 C-81.34989589 82.43494959 -81.7592734 82.31880009 -84.3125 78.9375 C-84.869375 77.968125 -85.42625 76.99875 -86 76 C-88.49508809 74.75245595 -89.50501347 74.87271775 -92.1875 75.5625 C-94.28527517 76.9383881 -94.28527517 76.9383881 -94.8125 79.875 C-95.20452734 82.86681261 -95.20452734 82.86681261 -94.25 85 C-94.1675 85.66 -94.085 86.32 -94 87 C-94.825 87.969375 -95.65 88.93875 -96.5 89.9375 C-99.30488498 92.69642465 -99.30488498 92.69642465 -98.9375 95.75 C-98.1059527 98.1478805 -98.1059527 98.1478805 -96 100 C-92.26703674 100.38286803 -91.22373677 100.14915785 -88 98 C-84.33684418 98.37894715 -81.22314421 100.31517462 -78 102 C-78.33 103.32 -78.66 104.64 -79 106 C-81.01822917 105.70703125 -83.03645833 105.4140625 -85.0546875 105.12109375 C-87.08140667 104.8315703 -87.08140667 104.8315703 -89 106 C-93.539219 106.54399285 -96.9544269 106.62289461 -100.9375 104.25 C-104.02255654 100.88448377 -104.89459487 99.15945644 -105.3125 94.5625 C-105 91 -105 91 -103.5625 88.625 C-101.93311688 85.88763635 -101.7690806 84.65604456 -101.5625 81.5625 C-101.148643 77.04017164 -100.21945999 74.38043299 -97 71 C-94.07073825 69.66668086 -91.1232809 68.76079919 -88 68 C-88.16008545 67.4212915 -88.3201709 66.84258301 -88.48510742 66.24633789 C-91.0522696 55.04649949 -89.55382428 42.65430038 -83.71484375 32.83984375 C-71.81536097 15.63697032 -53.35371363 11.11035212 -34.09521484 6.70849609 C-30.05089361 5.78274911 -26.01606341 4.81899415 -21.98095703 3.85400391 C-20.1585469 3.4191866 -18.33533476 2.98771304 -16.51123047 2.56005859 C-15.6967041 2.36879395 -14.88217773 2.1775293 -14.04296875 1.98046875 C-12.97598755 1.73139771 -12.97598755 1.73139771 -11.88745117 1.47729492 C-4.09237823 -0.49390772 -4.09237823 -0.49390772 0 0 Z M-11.24609375 6.72265625 C-20.02762055 9.35045735 -28.92152365 11.31875195 -37.87695312 13.26757812 C-49.98194318 15.99854387 -60.99082163 19.51945617 -71 27 C-71.886875 27.5775 -72.77375 28.155 -73.6875 28.75 C-80.57074519 35.44721153 -83.97060671 44.02203224 -84.375 53.5 C-84.2535299 60.88164468 -82.63496213 68.10856058 -80 75 C-79.01 75.66 -78.02 76.32 -77 77 C-76.85304688 75.87722656 -76.70609375 74.75445312 -76.5546875 73.59765625 C-75.00179898 62.82607088 -73.00002657 54.96766796 -64.375 47.6875 C-51.79176617 38.9927511 -35.42079329 38.619189 -20.875 41.1875 C-10.96011304 43.11299301 -2.13171219 46.63412672 4 55 C7.75460831 61.69648128 8.71149433 68.41230093 9 76 C10.65 75.67 12.3 75.34 14 75 C17.46877689 62.75604349 19.67556717 48.93971167 14 37 C11.84966464 33.5688638 9.56392046 30.26949045 6.40234375 27.703125 C4.27319528 25.1173068 4.12283478 22.45553951 3.5625 19.1875 C2.50685699 13.8374349 1.69469235 10.04106976 -2 6 C-5.83283325 4.72238892 -7.4139376 5.52806521 -11.24609375 6.72265625 Z M-67.7734375 58.05859375 C-71.76221532 64.37204144 -71.95106805 71.7775327 -71 79 C-68.79086457 82.04475302 -68.79086457 82.04475302 -66 84 C-63.80251952 87.69576263 -63.90439781 90.60070734 -64.41796875 94.83984375 C-65 97 -65 97 -66.66796875 99.859375 C-68.30552409 102.92545761 -68.30552409 102.92545761 -67.4453125 106.11328125 C-64.47365089 113.31384593 -61.25719816 119.23513249 -56 125 C-55.41992188 125.64839844 -54.83984375 126.29679687 -54.2421875 126.96484375 C-49.64585362 131.83943102 -44.79352839 135.98020707 -37.9140625 136.6015625 C-36.48486026 136.63961964 -35.05454414 136.64670116 -33.625 136.625 C-32.87694092 136.61734619 -32.12888184 136.60969238 -31.3581543 136.60180664 C-23.6949474 136.29427827 -19.36240297 133.52419224 -14.1328125 128.04296875 C-12.69344119 126.41455558 -11.33668912 124.713704 -10 123 C-10.66 122.01 -11.32 121.02 -12 120 C-12.30104004 115.86069947 -12.54000454 112.42900613 -10 109 C-6.8999494 106.89639423 -3.66708848 106.50005752 0 106 C0.94469796 101.90891133 1.22631854 97.93915061 1.4375 93.75 C1.67822756 89.45641852 2.01287888 85.30870107 3.0625 81.125 C4.97896057 73.37204587 4.48822537 66.24171502 1 59 C-3.51558839 51.57833988 -10.56634184 48.36054317 -18.640625 45.8828125 C-23.69914747 44.68499144 -28.69864268 44.6696996 -33.875 44.6875 C-34.80441406 44.67138672 -35.73382813 44.65527344 -36.69140625 44.63867188 C-49.18986501 44.62995607 -59.54726355 48.52266584 -67.7734375 58.05859375 Z M8 82 C6.84429296 85.46712111 6.67164707 88.5414956 6.4375 92.1875 C6.35371094 93.45980469 6.26992187 94.73210937 6.18359375 96.04296875 C6.12300781 97.01878906 6.06242187 97.99460937 6 99 C9.64532765 98.46801188 10.71684336 98.30611528 13.3125 95.5 C15.42155329 91.12566725 15.38082175 87.76027183 15 83 C11.73914061 81.02948211 11.73914061 81.02948211 8 82 Z M-4 111 C-6.16641665 112.66545339 -6.16641665 112.66545339 -8 115 C-8.25153259 117.65904469 -8.25153259 117.65904469 -7 120 C-4.52363988 121.37466625 -4.52363988 121.37466625 -2 122 C-2.33 123.98 -2.66 125.96 -3 128 C-2.01 128.66 -1.02 129.32 0 130 C0.66 129.67 1.32 129.34 2 129 C2.33 128.01 2.66 127.02 3 126 C4.794375 126.3403125 4.794375 126.3403125 6.625 126.6875 C10.88069031 127.23174459 13.36717483 126.39234828 17 124 C18.40457737 121.19084526 18.24895157 119.11189466 18 116 C17.00965774 113.59616005 17.00965774 113.59616005 15 112 C10.90823362 110.84099436 10.90823362 110.84099436 7 112 C7.020625 112.94875 7.04125 113.8975 7.0625 114.875 C7 118 7 118 6 120 C5.01 120 4.02 120 3 120 C2.6596875 118.329375 2.6596875 118.329375 2.3125 116.625 C1.39376342 112.83961627 1.39376342 112.83961627 -1.625 111.5625 C-2.40875 111.376875 -3.1925 111.19125 -4 111 Z " fill="#1F1F1F" transform="translate(157,17)"/>
<path d="M0 0 C2.3125 1.125 2.3125 1.125 4 3 C5.14217883 6.50268174 5.23740475 8.33229915 4 11.8125 C2 14 2 14 -1.375 15.0625 C-5 15 -5 15 -7.9375 13.5 C-10 11 -10 11 -10.5625 7.5 C-10 4 -10 4 -8.375 1.5625 C-5.30182885 -0.45932313 -3.61752119 -0.52755517 0 0 Z M-5 6 C-4.67 6.99 -4.34 7.98 -4 9 C-3.01 9 -2.02 9 -1 9 C-1.33 7.68 -1.66 6.36 -2 5 C-3.2236068 4.9254644 -3.2236068 4.9254644 -5 6 Z " fill="#1F1F1F" transform="translate(77,130)"/>
<path d="M0 0 C0.33 0.66 0.66 1.32 1 2 C0.67 2.99 0.34 3.98 0 5 C0 5.99 0 6.98 0 8 C-1.57421875 9.3515625 -1.57421875 9.3515625 -3.6875 10.625 C-4.37199219 11.05039063 -5.05648437 11.47578125 -5.76171875 11.9140625 C-12.36682605 15.11863463 -21.21893233 15.00115691 -28.1875 13 C-29.115625 12.67 -30.04375 12.34 -31 12 C-27.38132441 10.7937748 -24.07493749 10.89183082 -20.3125 10.9375 C-19.61060547 10.94201172 -18.90871094 10.94652344 -18.18554688 10.95117188 C-16.45699462 10.96293073 -14.72848635 10.98086546 -13 11 C-13 10.67 -13 10.34 -13 10 C-19.93 9.505 -19.93 9.505 -27 9 C-27 8.67 -27 8.34 -27 8 C-25.31583984 7.99613281 -25.31583984 7.99613281 -23.59765625 7.9921875 C-13.97258438 7.80312359 -7.12834907 7.12834907 0 0 Z " fill="#1A1A1A" transform="translate(142,145)"/>
<path d="M0 0 C5.61 0 11.22 0 17 0 C17.66 1.32 18.32 2.64 19 4 C15.87593617 7.12406383 13.52487407 6.97460287 9.125 7.1875 C5.44667947 7.1530588 2.43290119 6.37316047 -1 5 C-0.67 3.35 -0.34 1.7 0 0 Z " fill="#222222" transform="translate(115,128)"/>
<path d="M0 0 C1.32 0 2.64 0 4 0 C4 1.32 4 2.64 4 4 C5.32 4.33 6.64 4.66 8 5 C8 6.32 8 7.64 8 9 C6.68 9 5.36 9 4 9 C3.87625 9.639375 3.7525 10.27875 3.625 10.9375 C3.41875 11.618125 3.2125 12.29875 3 13 C2.01 13.495 2.01 13.495 1 14 C0.34 13.67 -0.32 13.34 -1 13 C-1 11.68 -1 10.36 -1 9 C-2.32 8.67 -3.64 8.34 -5 8 C-5 6.68 -5 5.36 -5 4 C-3.68 4 -2.36 4 -1 4 C-0.67 2.68 -0.34 1.36 0 0 Z " fill="#1B1B1B" transform="translate(187,99)"/>
<path d="M0 0 C-0.99 0.495 -0.99 0.495 -2 1 C-2 1.66 -2 2.32 -2 3 C-4.97 3.66 -7.94 4.32 -11 5 C-11 5.66 -11 6.32 -11 7 C-20.22551253 12.74031891 -20.22551253 12.74031891 -26 12 C-21.20553654 4.29022176 -21.20553654 4.29022176 -16.625 3.1875 C-15.42875 3.125625 -14.2325 3.06375 -13 3 C-11.60941958 2.5223197 -10.23374103 1.99938539 -8.875 1.4375 C-5.78686312 0.19984203 -3.36935745 -0.31587726 0 0 Z " fill="#232323" transform="translate(115,58)"/>
<path d="M0 0 C4.03207418 4.03207418 4.33626198 8.47359538 4.4375 14 C4.33380778 21.61738973 4.33380778 21.61738973 1.75 24.3125 C-0.6132348 25.76266681 -2.26324131 26.6959157 -5 27 C-5 26.34 -5 25.68 -5 25 C-4.34 25 -3.68 25 -3 25 C-0.60351897 19.52232908 1.60549949 14.42199795 0.125 8.5 C-0.24625 7.675 -0.6175 6.85 -1 6 C-2.65 5.67 -4.3 5.34 -6 5 C-3.9927092 1.9890638 -3.16115776 1.36983503 0 0 Z " fill="#272727" transform="translate(172,92)"/>
<path d="M0 0 C0.99 0.33 1.98 0.66 3 1 C3.33 2.98 3.66 4.96 4 7 C5.32 6.67 6.64 6.34 8 6 C7.01 11.61 6.02 17.22 5 23 C3.35 23 1.7 23 0 23 C-0.12032046 16.86365668 0.30471288 10.86836422 0.87890625 4.7578125 C1.22210157 2.03918729 1.22210157 2.03918729 0 0 Z " fill="#1E1E1E" transform="translate(97,145)"/>
<path d="M0 0 C-2.81027388 1.87351592 -4.23868658 2.4205796 -7.4375 3.0625 C-8.95855538 3.37391743 -10.47939483 3.68639165 -12 4 C-12.73347656 4.14308594 -13.46695313 4.28617188 -14.22265625 4.43359375 C-15.10244141 4.71396484 -15.10244141 4.71396484 -16 5 C-16.33 5.66 -16.66 6.32 -17 7 C-15.35 6.67 -13.7 6.34 -12 6 C-11.67 6.66 -11.34 7.32 -11 8 C-13.70776494 8.64829562 -16.41616445 9.29370602 -19.125 9.9375 C-19.88554688 10.11990234 -20.64609375 10.30230469 -21.4296875 10.49023438 C-25.60428434 11.47990173 -29.75459839 12.35572979 -34 13 C-30.63576723 10.03947516 -27.30840713 9.07710178 -23 8 C-25.99531539 7.00156154 -27.17255732 6.99267239 -30.1875 7.4375 C-31.445625 7.623125 -32.70375 7.80875 -34 8 C-30.89737586 5.93158391 -28.79414857 5.32440094 -25.1953125 4.4921875 C-24.05449219 4.22792969 -22.91367188 3.96367187 -21.73828125 3.69140625 C-20.54589844 3.42199219 -19.35351562 3.15257812 -18.125 2.875 C-16.94035156 2.59785156 -15.75570312 2.32070313 -14.53515625 2.03515625 C-4.86446443 -0.17809115 -4.86446443 -0.17809115 0 0 Z " fill="#191919" transform="translate(136,22)"/>
<path d="M0 0 C0.66 0.66 1.32 1.32 2 2 C4.61225832 2.20623092 6.66470693 2.09579802 9.1875 1.375 C10.0846875 1.189375 10.0846875 1.189375 11 1 C11.66 1.66 12.32 2.32 13 3 C9.7 3.66 6.4 4.32 3 5 C3 8.3 3 11.6 3 15 C1.68 14.67 0.36 14.34 -1 14 C-1.33 11.36 -1.66 8.72 -2 6 C-4.475 5.01 -4.475 5.01 -7 4 C-7 3.34 -7 2.68 -7 2 C-4.35261084 0.5393715 -3.10551666 0 0 0 Z " fill="#272727" transform="translate(160,123)"/>
<path d="M0 0 C0.99 0.33 1.98 0.66 3 1 C3 7.93 3 14.86 3 22 C2.34 22 1.68 22 1 22 C0.87625 21.195625 0.7525 20.39125 0.625 19.5625 C0.14050455 16.80087595 -0.36793246 14.05718769 -0.9375 11.3125 C-1.09089844 10.56613281 -1.24429688 9.81976563 -1.40234375 9.05078125 C-1.97065052 6.7192978 -1.97065052 6.7192978 -4 4 C-2.68 2.68 -1.36 1.36 0 0 Z " fill="#272727" transform="translate(145,145)"/>
<path d="M0 0 C2.6015625 -0.29296875 2.6015625 -0.29296875 5.625 -0.1875 C7.12933594 -0.14689453 7.12933594 -0.14689453 8.6640625 -0.10546875 C9.43492187 -0.07066406 10.20578125 -0.03585938 11 0 C11.625 1.875 11.625 1.875 12 4 C9.58513057 6.41486943 8.87292211 6.2961925 5.5625 6.3125 C4.38880859 6.33763672 4.38880859 6.33763672 3.19140625 6.36328125 C0.53872837 5.92353251 -0.322967 5.04371546 -2 3 C-1.34 2.01 -0.68 1.02 0 0 Z " fill="#1D1D1D" transform="translate(137,99)"/>
<path d="M0 0 C3.63 0 7.26 0 11 0 C11.33 1.32 11.66 2.64 12 4 C10 6 10 6 7.90625 6.23046875 C7.1121875 6.21628906 6.318125 6.20210938 5.5 6.1875 C4.7059375 6.18105469 3.911875 6.17460938 3.09375 6.16796875 C1 6 1 6 -1 5 C-0.67 3.35 -0.34 1.7 0 0 Z " fill="#191919" transform="translate(99,99)"/>
<path d="M0 0 C3.71787234 0.01337364 4.17431788 0.31193156 7.25 2.875 C7.91 3.7 8.57 4.525 9.25 5.375 C8.92 6.035 8.59 6.695 8.25 7.375 C5.125 6.85416667 2 6.33333333 -1.125 5.8125 C-2.424375 5.5959375 -2.424375 5.5959375 -3.75 5.375 C-4.3125 3.4375 -4.3125 3.4375 -4.75 1.375 C-3.75 0.375 -3.75 0.375 0 0 Z " fill="#212121" transform="translate(145.75,80.625)"/>
<path d="M0 0 C1.98 0.495 1.98 0.495 4 1 C4 4.96 4 8.92 4 13 C3.01 13.33 2.02 13.66 1 14 C0.34 13.67 -0.32 13.34 -1 13 C-1.02686553 11.02090602 -1.04633375 9.04171029 -1.0625 7.0625 C-1.07410156 5.96035156 -1.08570312 4.85820313 -1.09765625 3.72265625 C-1 1 -1 1 0 0 Z " fill="#131313" transform="translate(122,104)"/>
<path d="M0 0 C1.8871875 0.061875 1.8871875 0.061875 3.8125 0.125 C4.1425 1.445 4.4725 2.765 4.8125 4.125 C-3.449459 7.75370159 -3.449459 7.75370159 -8.1875 6.125 C-7.875 4.25 -7.875 4.25 -7.1875 2.125 C-4.09861478 0.06574319 -3.47814073 -0.1140374 0 0 Z " fill="#181818" transform="translate(100.1875,80.875)"/>
<path d="M0 0 C2.375 0.1875 2.375 0.1875 5 1 C7.84176266 5.262644 6.81138016 9.21285703 6 14 C4.68 14.33 3.36 14.66 2 15 C2.03480469 14.12988281 2.03480469 14.12988281 2.0703125 13.2421875 C2.18250423 8.38588834 1.87514915 4.57067605 0 0 Z " fill="#1E1E1E" transform="translate(87,100)"/>
<path d="M0 0 C0.80566406 0.04833984 1.61132812 0.09667969 2.44140625 0.14648438 C3.28316406 0.20255859 4.12492187 0.25863281 4.9921875 0.31640625 C6.26642578 0.3947168 6.26642578 0.3947168 7.56640625 0.47460938 C9.66697874 0.60442003 11.76712941 0.74102365 13.8671875 0.87890625 C13.5371875 1.86890625 13.2071875 2.85890625 12.8671875 3.87890625 C10.26295158 3.90587762 7.65899506 3.92573114 5.0546875 3.94140625 C4.31669922 3.94978516 3.57871094 3.95816406 2.81835938 3.96679688 C-0.43203318 3.98150453 -3.02686145 3.91422327 -6.1328125 2.87890625 C-6.1328125 2.21890625 -6.1328125 1.55890625 -6.1328125 0.87890625 C-3.77622853 -0.29938574 -2.60708014 -0.16523747 0 0 Z " fill="#282828" transform="translate(117.1328125,153.12109375)"/>
<path d="M0 0 C0 0.66 0 1.32 0 2 C-5.65755469 3.80996216 -11.0870696 5.35729017 -17 6 C-16 3 -16 3 -14.29296875 2.0859375 C-13.25076172 1.73402344 -13.25076172 1.73402344 -12.1875 1.375 C-11.15689453 1.01535156 -11.15689453 1.01535156 -10.10546875 0.6484375 C-6.27842182 -0.53020775 -3.90018747 -1.25363169 0 0 Z " fill="#272727" transform="translate(114,29)"/>
<path d="M0 0 C2.8125 -0.25 2.8125 -0.25 6 0 C7.9375 1.75 7.9375 1.75 9 4 C8.6875 6.25 8.6875 6.25 8 8 C7.608125 7.484375 7.21625 6.96875 6.8125 6.4375 C5.05710334 4.71152254 5.05710334 4.71152254 2.5 5.1875 C-0.20696281 5.94271259 -0.20696281 5.94271259 -3 8 C-2.37240135 5.07120629 -1.41377341 2.63904371 0 0 Z " fill="#252525" transform="translate(71,130)"/>
<path d="M0 0 C6.93 0.495 6.93 0.495 14 1 C14 1.33 14 1.66 14 2 C10.7 2.33 7.4 2.66 4 3 C4 3.33 4 3.66 4 4 C8.455 4.99 8.455 4.99 13 6 C13 6.33 13 6.66 13 7 C7.78020872 7.1799928 3.92737019 6.97094808 -1 5 C-0.67 3.35 -0.34 1.7 0 0 Z " fill="#161616" transform="translate(115,128)"/>
<path d="M0 0 C0.66 0.33 1.32 0.66 2 1 C2.4140625 3.50390625 2.4140625 3.50390625 2.625 6.5625 C2.69976562 7.57441406 2.77453125 8.58632812 2.8515625 9.62890625 C2.90054688 10.41136719 2.94953125 11.19382812 3 12 C2.01 12.495 2.01 12.495 1 13 C0.34 12.67 -0.32 12.34 -1 12 C-1.484375 9.78515625 -1.484375 9.78515625 -1.75 7.0625 C-1.84796875 6.16660156 -1.9459375 5.27070312 -2.046875 4.34765625 C-2 2 -2 2 0 0 Z " fill="#262626" transform="translate(176,61)"/>
<path d="M0 0 C0.99 0.33 1.98 0.66 3 1 C3.433125 1.99 3.433125 1.99 3.875 3 C4.431875 3.99 4.431875 3.99 5 5 C6.65821773 5.37309899 8.32577014 5.70700977 10 6 C10.99 7.485 10.99 7.485 12 9 C11.01 9 10.02 9 9 9 C8.01 10.485 8.01 10.485 7 12 C6.01287122 10.75627811 5.03560095 9.50472782 4.0625 8.25 C3.51722656 7.55390625 2.97195312 6.8578125 2.41015625 6.140625 C1.02574346 4.03907872 0.43713013 2.45678201 0 0 Z " fill="#1A1A1A" transform="translate(89,133)"/>
<path d="M0 0 C0.66 0 1.32 0 2 0 C2 1.65 2 3.3 2 5 C1.34 5 0.68 5 0 5 C0.2475 6.1446875 0.2475 6.1446875 0.5 7.3125 C1 10 1 10 1 13 C-0.32 12.67 -1.64 12.34 -3 12 C-3.29162929 7.04230204 -3.12940055 3.97193147 0 0 Z " fill="#242424" transform="translate(56,105)"/>
<path d="M0 0 C1.485 0.99 1.485 0.99 3 2 C4.65549531 2.38499891 6.3222433 2.72793135 8 3 C8 4.32 8 5.64 8 7 C5.09399739 8.25664978 3.20395416 9 0 9 C0.185625 8.2575 0.37125 7.515 0.5625 6.75 C0.99203108 4.05009037 0.85122974 2.55368923 0 0 Z " fill="#222222" transform="translate(187,101)"/>
<path d="M0 0 C0.99 0.33 1.98 0.66 3 1 C3.33 2.98 3.66 4.96 4 7 C5.32 6.67 6.64 6.34 8 6 C7.34 7.98 6.68 9.96 6 12 C5.67 11.01 5.34 10.02 5 9 C4.34 9 3.68 9 3 9 C2.67 10.98 2.34 12.96 2 15 C1.67 15 1.34 15 1 15 C1.01160156 14.08476562 1.02320312 13.16953125 1.03515625 12.2265625 C1.04417969 11.03804687 1.05320312 9.84953125 1.0625 8.625 C1.07410156 7.44164062 1.08570312 6.25828125 1.09765625 5.0390625 C1.21466593 2.08078479 1.21466593 2.08078479 0 0 Z " fill="#151515" transform="translate(97,145)"/>
<path d="M0 0 C-0.639375 0.28875 -1.27875 0.5775 -1.9375 0.875 C-4.15206079 1.82823451 -4.15206079 1.82823451 -5 4 C-3.35 4 -1.7 4 0 4 C-2.98646769 5.99097846 -5.59687262 6.94124926 -9 8 C-8.34 6.68 -7.68 5.36 -7 4 C-7.33 4.33 -7.66 4.66 -8 5 C-8.99 4.34 -9.98 3.68 -11 3 C-9.73581754 2.30034557 -8.46334598 1.61565237 -7.1875 0.9375 C-6.47980469 0.55464844 -5.77210937 0.17179687 -5.04296875 -0.22265625 C-3 -1 -3 -1 0 0 Z " fill="#181818" transform="translate(102,31)"/>
<path d="M0 0 C6.52307692 -0.36923077 6.52307692 -0.36923077 8.9375 1.5 C9.288125 1.995 9.63875 2.49 10 3 C5.98195309 3.84098656 2.98196457 4.05404945 -1 3 C-0.67 2.01 -0.34 1.02 0 0 Z " fill="#282828" transform="translate(130,58)"/>
<path d="M0 0 C2.0625 0.4375 2.0625 0.4375 4 1 C4.33 2.32 4.66 3.64 5 5 C3.35 5.33 1.7 5.66 0 6 C-0.38218767 4.34385343 -0.71395102 2.67542976 -1 1 C-0.67 0.67 -0.34 0.34 0 0 Z " fill="#141414" transform="translate(85,144)"/>
<path d="M0 0 C1.875 0.125 1.875 0.125 4 1 C5.25 4.0625 5.25 4.0625 6 7 C4.68 7.33 3.36 7.66 2 8 C1.67 7.01 1.34 6.02 1 5 C0.34 4.67 -0.32 4.34 -1 4 C-0.67 2.68 -0.34 1.36 0 0 Z " fill="#262626" transform="translate(98,141)"/>
<path d="M0 0 C2.31 0.33 4.62 0.66 7 1 C6.01 2.485 6.01 2.485 5 4 C5.99 4.99 6.98 5.98 8 7 C4.37 6.34 0.74 5.68 -3 5 C-1.68 4.34 -0.36 3.68 1 3 C1.33 2.67 1.66 2.34 2 2 C1.34 1.34 0.68 0.68 0 0 Z " fill="#1A1A1A" transform="translate(137,58)"/>
<path d="M0 0 C0.99 0.66 1.98 1.32 3 2 C3.125 4.5 3.125 4.5 3 7 C3.33 7.66 3.66 8.32 4 9 C3.34 9.66 2.68 10.32 2 11 C0.26337666 7.77484237 -0.8905928 4.48670834 -2 1 C-1.34 0.67 -0.68 0.34 0 0 Z " fill="#282828" transform="translate(161,27)"/>
<path d="M0 0 C1.65 0.33 3.3 0.66 5 1 C5 2.32 5 3.64 5 5 C3.125 5.625 3.125 5.625 1 6 C0.34 5.34 -0.32 4.68 -1 4 C-0.625 1.875 -0.625 1.875 0 0 Z " fill="#1E1E1E" transform="translate(179,116)"/>
<path d="M0 0 C0.66 0 1.32 0 2 0 C2 3.3 2 6.6 2 10 C0.68 9.67 -0.64 9.34 -2 9 C-1.125 1.125 -1.125 1.125 0 0 Z " fill="#272727" transform="translate(123,106)"/>
<path d="M0 0 C0.33 0.99 0.66 1.98 1 3 C0.01 3 -0.98 3 -2 3 C-2 3.66 -2 4.32 -2 5 C-3.65 5 -5.3 5 -7 5 C-5.22678182 1.07358831 -4.52021524 0 0 0 Z " fill="#262626" transform="translate(101,82)"/>
<path d="M0 0 C0.33 0.66 0.66 1.32 1 2 C-1.31 2 -3.62 2 -6 2 C-5.690625 3.423125 -5.690625 3.423125 -5.375 4.875 C-5.25125 5.90625 -5.1275 6.9375 -5 8 C-5.66 8.66 -6.32 9.32 -7 10 C-8.125 4.375 -8.125 4.375 -7 1 C-4.53721199 -0.231394 -2.7204945 -0.07159196 0 0 Z " fill="#1A1A1A" transform="translate(170,127)"/>
<path d="M0 0 C2.31 0.33 4.62 0.66 7 1 C5.515 2.485 5.515 2.485 4 4 C3.01 3.67 2.02 3.34 1 3 C0.67 3.66 0.34 4.32 0 5 C-0.99 4.67 -1.98 4.34 -3 4 C-2.34 4 -1.68 4 -1 4 C-0.67 2.68 -0.34 1.36 0 0 Z " fill="#1D1D1D" transform="translate(160,142)"/>
<path d="M0 0 C1.32 0.33 2.64 0.66 4 1 C4.33 2.98 4.66 4.96 5 7 C4.01 7.495 4.01 7.495 3 8 C0 2.25 0 2.25 0 0 Z " fill="#282828" transform="translate(87,100)"/>
<path d="M0 0 C2.31 0 4.62 0 7 0 C6.67 0.99 6.34 1.98 6 3 C5.01 3.33 4.02 3.66 3 4 C2.01 3.34 1.02 2.68 0 2 C0 1.34 0 0.68 0 0 Z " fill="#282828" transform="translate(59,119)"/>
<path d="M0 0 C2.05078125 0.03255208 4.1015625 0.06510417 6.15234375 0.09765625 C6.15234375 0.42765625 6.15234375 0.75765625 6.15234375 1.09765625 C5.18296875 1.22140625 4.21359375 1.34515625 3.21484375 1.47265625 C1.69890625 1.78203125 1.69890625 1.78203125 0.15234375 2.09765625 C-0.17765625 2.75765625 -0.50765625 3.41765625 -0.84765625 4.09765625 C0.80234375 4.09765625 2.45234375 4.09765625 4.15234375 4.09765625 C4.15234375 4.42765625 4.15234375 4.75765625 4.15234375 5.09765625 C2.17234375 5.09765625 0.19234375 5.09765625 -1.84765625 5.09765625 C-2.41015625 3.16015625 -2.41015625 3.16015625 -2.84765625 1.09765625 C-1.84765625 0.09765625 -1.84765625 0.09765625 0 0 Z " fill="#141414" transform="translate(143.84765625,80.90234375)"/>
<path d="M0 0 C1.9375 0.625 1.9375 0.625 4 2 C4.875 5 4.875 5 5 8 C4.34 8.66 3.68 9.32 3 10 C2.87625 8.906875 2.7525 7.81375 2.625 6.6875 C2.24535199 2.92618198 2.24535199 2.92618198 0 0 Z " fill="#181818" transform="translate(77,131)"/>
<path d="M0 0 C-0.66 1.32 -1.32 2.64 -2 4 C-3.98 4 -5.96 4 -8 4 C-2.7826087 0 -2.7826087 0 0 0 Z " fill="#262626" transform="translate(110,100)"/>
</svg>
