<?xml version="1.0" encoding="UTF-8"?>
<svg version="1.1" xmlns="http://www.w3.org/2000/svg" width="270" height="226">
<path d="M0 0 C14.93402858 12.3239371 22.22774007 27.07216692 27.1875 45.5625 C30.15865156 45.24286511 30.15865156 45.24286511 33.1875 43.5625 C34.20667845 41.24892192 34.80686954 39.02550027 35.3515625 36.55859375 C36.1875 34.5625 36.1875 34.5625 38.171875 33.7265625 C40.1875 33.5625 40.1875 33.5625 41.8125 34.5 C43.91062972 37.64719458 44.40118056 40.87284725 45.1875 44.5625 C47.4975 45.2225 49.8075 45.8825 52.1875 46.5625 C52.1875 48.2125 52.1875 49.8625 52.1875 51.5625 C50.5478125 52.2740625 50.5478125 52.2740625 48.875 53 C45.46495408 54.89830492 44.44680677 56.62331409 43.25 60.3125 C42.87020631 61.72251249 42.50717691 63.13765434 42.1875 64.5625 C40.2075 64.5625 38.2275 64.5625 36.1875 64.5625 C35.93355469 63.85222656 35.67960938 63.14195313 35.41796875 62.41015625 C35.07378906 61.49105469 34.72960937 60.57195312 34.375 59.625 C34.03855469 58.70847656 33.70210937 57.79195313 33.35546875 56.84765625 C32.35340906 54.2284576 32.35340906 54.2284576 29.1875 53.5625 C30.43183363 61.26063957 32.18225103 68.66263175 34.4375 76.125 C34.71207031 77.08857422 34.98664063 78.05214844 35.26953125 79.04492188 C38.14297553 88.59944624 42.84146927 97.93890586 50.5 104.5625 C51.056875 105.2225 51.61375 105.8825 52.1875 106.5625 C51.9375 109.3125 51.9375 109.3125 51.1875 111.5625 C47.7225 112.0575 47.7225 112.0575 44.1875 112.5625 C44.765 112.86542969 45.3425 113.16835937 45.9375 113.48046875 C48.15780607 114.73324561 50.20657882 115.9551736 52.1875 117.5625 C52.6875 120.375 52.6875 120.375 52.1875 122.5625 C49.0125906 124.4703584 47.08164789 124.7234041 43.4375 124.1875 C42.63828125 124.07664063 41.8390625 123.96578125 41.015625 123.8515625 C40.41234375 123.75617188 39.8090625 123.66078125 39.1875 123.5625 C40.04214844 123.86542969 40.89679688 124.16835937 41.77734375 124.48046875 C42.88207031 124.89941406 43.98679688 125.31835938 45.125 125.75 C46.22714844 126.15605469 47.32929688 126.56210938 48.46484375 126.98046875 C51.1875 128.5625 51.1875 128.5625 52.12890625 131.11328125 C52.1875 133.5625 52.1875 133.5625 51.1875 135.5625 C35.93035012 136.02344108 21.9030114 135.81123564 7.1875 131.5625 C5.85813329 131.18468334 4.52870887 130.80706968 3.19921875 130.4296875 C2.20535156 130.14351562 1.21148437 129.85734375 0.1875 129.5625 C0.1875 131.5425 0.1875 133.5225 0.1875 135.5625 C-2.1225 135.8925 -4.4325 136.2225 -6.8125 136.5625 C-7.14980842 135.12592755 -7.48219591 133.68819907 -7.8125 132.25 C-7.998125 131.44949219 -8.18375 130.64898437 -8.375 129.82421875 C-8.8125 127.5625 -8.8125 127.5625 -8.8125 124.5625 C-9.69421875 124.29695312 -10.5759375 124.03140625 -11.484375 123.7578125 C-20.66323018 120.46118141 -28.40857 113.74582549 -35.8125 107.5625 C-36.25207031 108.04332031 -36.69164062 108.52414063 -37.14453125 109.01953125 C-39.26633299 110.98232209 -40.99383384 111.18159917 -43.8125 111.5625 C-43.3175 113.3259375 -43.3175 113.3259375 -42.8125 115.125 C-41.28022988 121.85835602 -41.64979259 128.70167106 -41.8125 135.5625 C-44.4525 135.5625 -47.0925 135.5625 -49.8125 135.5625 C-49.86148438 134.47710937 -49.91046875 133.39171875 -49.9609375 132.2734375 C-50.03601986 130.82810216 -50.11156528 129.38279081 -50.1875 127.9375 C-50.2184375 127.22464844 -50.249375 126.51179687 -50.28125 125.77734375 C-50.52270155 121.39097392 -51.20592731 117.7030166 -52.8125 113.5625 C-53.73869141 113.67078125 -53.73869141 113.67078125 -54.68359375 113.78125 C-57.39108105 114.07796094 -60.0986393 114.3312912 -62.8125 114.5625 C-63.61171875 114.63082031 -64.4109375 114.69914063 -65.234375 114.76953125 C-69.83032153 114.98348049 -73.42735132 114.59518627 -77.3125 111.99609375 C-83.72336749 105.8690407 -83.91807436 95.83593716 -84.8125 87.5625 C-85.98039062 87.38074219 -85.98039062 87.38074219 -87.171875 87.1953125 C-89.8125 86.5625 -89.8125 86.5625 -92.0625 84.4375 C-94.28356488 80.78860769 -94.88197475 78.86993443 -94.8125 74.5625 C-93.61058358 71.64059973 -92.25697175 68.88780267 -90.74609375 66.11328125 C-89.53856131 63.64618544 -89.53856131 63.64618544 -90.53125 61.484375 C-91.16546875 60.53304687 -91.16546875 60.53304687 -91.8125 59.5625 C-92.50101678 58.20885003 -93.18852187 56.85468498 -93.875 55.5 C-94.38740234 54.49259766 -94.38740234 54.49259766 -94.91015625 53.46484375 C-98.75825453 45.35218634 -97.55781685 34.77183786 -94.91015625 26.41015625 C-88.31691453 9.30526937 -78.87699576 -1.81231299 -62.1875 -9.75 C-41.47698218 -18.21587834 -17.58753175 -13.22772203 0 0 Z M-70.8125 4.5625 C-71.84375 5.305 -72.875 6.0475 -73.9375 6.8125 C-82.18568826 14.70207138 -88.44088934 25.594476 -88.98046875 37.1640625 C-88.99234865 38.50517152 -88.99871536 39.84633898 -89 41.1875 C-89.01224609 41.868125 -89.02449219 42.54875 -89.03710938 43.25 C-89.04236355 45.02240756 -88.93465906 46.7942994 -88.8125 48.5625 C-88.1525 49.2225 -87.4925 49.8825 -86.8125 50.5625 C-86.86470703 49.56283203 -86.86470703 49.56283203 -86.91796875 48.54296875 C-87.21505722 38.42781379 -86.15651917 30.72819508 -79.25 23 C-77.79013486 21.50178044 -76.31428852 20.01869342 -74.8125 18.5625 C-74.1525 17.9025 -73.4925 17.2425 -72.8125 16.5625 C-70.875 16.6875 -70.875 16.6875 -68.8125 17.5625 C-67.0625 19.625 -67.0625 19.625 -65.8125 21.5625 C-66.451875 21.830625 -67.09125 22.09875 -67.75 22.375 C-70.14381686 23.44917752 -70.14381686 23.44917752 -70.8125 26.5625 C-70.09304582 29.2247429 -69.29831493 31.75692734 -68.3828125 34.3515625 C-68.11419403 35.12825287 -67.84557556 35.90494324 -67.56881714 36.70516968 C-66.9932592 38.3594416 -66.41288255 40.0120435 -65.828125 41.66308594 C-64.95985857 44.12412619 -64.11567946 46.59245391 -63.2734375 49.0625 C-53.78837728 76.36568796 -38.53435709 100.21188861 -12.8125 114.5625 C-12.22823242 114.88976074 -11.64396484 115.21702148 -11.04199219 115.55419922 C1.21015692 122.29592566 13.35673025 125.84214239 27.1875 127.5625 C24.57964943 125.51598049 22.02476422 123.91316668 19.0625 122.4375 C14.30038259 119.84990102 10.65480898 116.49937546 6.7109375 112.81640625 C3.61303443 110.04939376 0.31421427 107.76490423 -3.11328125 105.4296875 C-23.18679419 91.54381314 -36.5105262 75.0521685 -47.8125 53.5625 C-48.40289062 52.45648438 -48.99328125 51.35046875 -49.6015625 50.2109375 C-50.8125 47.5625 -50.8125 47.5625 -50.8125 44.5625 C-48.8325 43.5725 -46.8525 42.5825 -44.8125 41.5625 C-44.57402344 42.366875 -44.33554688 43.17125 -44.08984375 44 C-39.3330893 57.26654453 -30.85821095 74.53202603 -18.8125 82.5625 C-19.48908846 77.78920557 -20.71273158 73.28440982 -22.125 68.6875 C-24.62970222 60.37548379 -26.77958746 52.00079059 -28.8125 43.5625 C-26.1725 43.2325 -23.5325 42.9025 -20.8125 42.5625 C-20.70035156 43.49642578 -20.70035156 43.49642578 -20.5859375 44.44921875 C-18.41009218 59.74413141 -13.99237227 74.87466865 -6.8125 88.5625 C-6.43351562 89.45066406 -6.05453125 90.33882813 -5.6640625 91.25390625 C-1.43794145 100.06954091 6.73046689 103.5479772 15.1875 107.5625 C16.21875 108.05234375 17.25 108.5421875 18.3125 109.046875 C23.61494335 111.42981171 23.61494335 111.42981171 29.1875 110.5625 C28.69121094 110.11261719 28.19492188 109.66273438 27.68359375 109.19921875 C16.61146637 98.7153638 1.90848596 76.62817247 1.02734375 60.66015625 C1.08019531 59.96792969 1.13304687 59.27570313 1.1875 58.5625 C2.8375 58.5625 4.4875 58.5625 6.1875 58.5625 C6.6 59.29251221 7.0125 60.02252441 7.4375 60.7746582 C9.00529298 63.54169908 10.57909631 66.30521484 12.15673828 69.06665039 C13.15978394 70.82637546 14.15616122 72.58989626 15.15234375 74.35351562 C22.56921409 88.39881436 22.56921409 88.39881436 34.1875 98.5625 C33.7853125 97.58410156 33.7853125 97.58410156 33.375 96.5859375 C29.06409894 85.61015652 25.59058177 74.43561055 22.75 62.99609375 C22.53859375 62.14837402 22.3271875 61.3006543 22.109375 60.42724609 C21.04891731 56.15649376 20.01161516 51.88164157 19.00390625 47.59814453 C14.75711068 29.96815191 7.92027374 14.71553885 -7.5 4.0625 C-8.92256735 3.20392395 -10.35950873 2.36851927 -11.8125 1.5625 C-12.45574219 1.18738281 -13.09898437 0.81226563 -13.76171875 0.42578125 C-31.81325592 -9.42384045 -54.57085413 -8.04048794 -70.8125 4.5625 Z M-77.8125 32.5625 C-80.05940558 38.17976395 -80.50576904 43.09615482 -79.3125 49.0625 C-77.8197538 56.52623101 -78.98963428 60.95168596 -82.875 67.25 C-85.88715399 72.00054333 -85.88715399 72.00054333 -86.76953125 77.45703125 C-86.45371094 78.15183594 -86.13789062 78.84664062 -85.8125 79.5625 C-84.69875 79.8925 -83.585 80.2225 -82.4375 80.5625 C-80.52734375 81.23828125 -80.52734375 81.23828125 -78.8125 82.5625 C-77.21257417 86.78370652 -76.54164097 91.11946112 -75.8125 95.5625 C-74.71398607 101.82028025 -74.71398607 101.82028025 -70.8125 106.5625 C-64.84480274 107.61668761 -58.34036926 106.21580553 -52.4375 105.1875 C-51.24833984 104.99800781 -51.24833984 104.99800781 -50.03515625 104.8046875 C-48.89240234 104.61132812 -48.89240234 104.61132812 -47.7265625 104.4140625 C-47.0454541 104.29885254 -46.3643457 104.18364258 -45.66259766 104.06494141 C-43.49843514 103.58224467 -43.49843514 103.58224467 -40.8125 101.5625 C-41.781875 100.69625 -42.75125 99.83 -43.75 98.9375 C-58.45253697 84.14603639 -65.6082414 63.15800992 -72.13232422 43.86157227 C-72.36153564 43.19097778 -72.59074707 42.5203833 -72.8269043 41.82946777 C-73.45848024 39.97773347 -74.0808219 38.12285715 -74.70263672 36.26782227 C-75.51804664 33.4356616 -75.51804664 33.4356616 -77.8125 32.5625 Z " fill="#252525" transform="translate(163.8125,51.4375)"/>
<path d="M0 0 C2.6875 1.125 2.6875 1.125 3.6953125 3.09375 C4.32164033 4.7148338 4.94794188 6.33592776 5.57421875 7.95703125 C7.20007499 11.12317234 9.40824969 12.00707376 12.6875 13.125 C12.6875 14.775 12.6875 16.425 12.6875 18.125 C11.0478125 18.5890625 11.0478125 18.5890625 9.375 19.0625 C6.75162561 20.14583679 5.8705378 20.76902303 4.5546875 23.328125 C3.82475829 25.58169284 3.19663017 27.81209439 2.6875 30.125 C0.3125 30.75 0.3125 30.75 -2.3125 31.125 C-4.6254482 28.8120518 -4.80830975 27.64595125 -5.4375 24.5 C-5.60507813 23.68273437 -5.77265625 22.86546875 -5.9453125 22.0234375 C-6.06648438 21.39695312 -6.18765625 20.77046875 -6.3125 20.125 C-8.6225 19.465 -10.9325 18.805 -13.3125 18.125 C-13.3125 16.475 -13.3125 14.825 -13.3125 13.125 C-12.219375 12.63 -11.12625 12.135 -10 11.625 C-5.43616228 9.07109485 -4.75207208 6.00354982 -3.3125 1.125 C-2.3125 0.125 -2.3125 0.125 0 0 Z " fill="#262626" transform="translate(118.3125,49.875)"/>
<path d="M0 0 C2.37890625 0.2265625 2.37890625 0.2265625 5 1 C6.15234375 2.9609375 6.15234375 2.9609375 6.9375 5.375 C8.4776811 9.41402691 8.4776811 9.41402691 12.1875 11.8125 C13.115625 12.204375 14.04375 12.59625 15 13 C15.875 15.1875 15.875 15.1875 16 17 C13.61426621 18.89213369 11.92824652 20.02391783 9 21 C7.75501391 23.32269959 7.75501391 23.32269959 6.8125 26.0625 C6.46832031 26.98160156 6.12414062 27.90070313 5.76953125 28.84765625 C5.38861328 29.91306641 5.38861328 29.91306641 5 31 C2.625 31.1875 2.625 31.1875 0 31 C-2 28 -2 28 -2.75 24.5 C-3.65349713 20.75011114 -3.65349713 20.75011114 -7.0625 19.3125 C-8.5165625 18.6628125 -8.5165625 18.6628125 -10 18 C-10.875 15.8125 -10.875 15.8125 -11 14 C-8.61426621 12.10786631 -6.92824652 10.97608217 -4 10 C-2.75501391 7.67730041 -2.75501391 7.67730041 -1.8125 4.9375 C-1.46832031 4.01839844 -1.12414062 3.09929688 -0.76953125 2.15234375 C-0.51558594 1.44207031 -0.26164063 0.73179688 0 0 Z " fill="#262626" transform="translate(184,38)"/>
<path d="M0 0 C6.01910828 1.20382166 6.01910828 1.20382166 8 4 C8.62306782 7.04798043 8.50328982 9.93601585 8 13 C6.25 15.5625 6.25 15.5625 4 17 C2.68 17 1.36 17 0 17 C0 11.39 0 5.78 0 0 Z " fill="#060606" transform="translate(0,192)"/>
<path d="M0 0 C2.12508244 3.18762365 2.5020163 5.26512223 3 9 C2.34 9 1.68 9 1 9 C-1.125 3.375 -1.125 3.375 0 0 Z " fill="#202020" transform="translate(149,121)"/>
</svg>
