<?xml version="1.0" encoding="UTF-8"?>
<svg version="1.1" xmlns="http://www.w3.org/2000/svg" width="244" height="208">
<path d="M0 0 C6.52872374 3.75189644 10.72356013 8.98209732 13.5625 15.9375 C14.00967411 17.91784249 14.4567787 19.89820111 14.90234375 21.87890625 C15.63303832 24.15746269 16.65015072 25.77962299 18 27.75 C22.12385739 33.93578609 24.16531318 41.50280406 23.5625 48.9375 C24.14 48.958125 24.7175 48.97875 25.3125 49 C28.99183295 50.53305539 29.83533347 53.42148243 31.5625 56.9375 C31.5625 57.5975 31.5625 58.2575 31.5625 58.9375 C32.09875 59.205625 32.635 59.47375 33.1875 59.75 C33.97125 60.141875 34.755 60.53375 35.5625 60.9375 C36.614375 61.411875 37.66625 61.88625 38.75 62.375 C41.5625 63.9375 41.5625 63.9375 42.5625 66.9375 C40.98842458 69.9004655 39.65894715 70.89030246 36.625 72.375 C32.26929443 74.59729876 30.339313 77.53923661 28 81.75 C27.525625 82.471875 27.05125 83.19375 26.5625 83.9375 C25.5725 83.9375 24.5825 83.9375 23.5625 83.9375 C23.57821045 85.20867676 23.5939209 86.47985352 23.61010742 87.78955078 C23.6645325 92.51946644 23.69889592 97.24935456 23.72729492 101.97949219 C23.74235288 104.02413594 23.76280357 106.06874755 23.78881836 108.11328125 C23.82533311 111.05737252 23.84225651 114.00103557 23.85546875 116.9453125 C23.87095261 117.8549173 23.88643646 118.76452209 23.90238953 119.70169067 C23.90375378 124.88217042 23.46625124 128.4593108 20.5625 132.9375 C16.21507557 137.06197959 12.87087998 138.04762404 7.01269531 138.09863281 C6.11786438 138.10824036 5.22303345 138.1178479 4.30108643 138.12774658 C3.34063416 138.13199646 2.38018188 138.13624634 1.390625 138.140625 C0.39424011 138.14632507 -0.60214478 138.15202515 -1.62872314 138.15789795 C-3.73684633 138.16733811 -5.84498421 138.17387802 -7.953125 138.17773438 C-11.16172377 138.18742217 -14.36967696 138.21844796 -17.578125 138.25 C-19.63020455 138.25653235 -21.68228866 138.26178191 -23.734375 138.265625 C-24.68673035 138.2779718 -25.63908569 138.2903186 -26.62030029 138.30303955 C-32.58341517 138.28331824 -37.02994438 137.51924018 -42.4375 134.9375 C-46.34237134 130.23162941 -47.54098233 126.3664963 -47.578125 120.3828125 C-47.59746094 119.52042969 -47.61679688 118.65804687 -47.63671875 117.76953125 C-47.67042217 115.97287988 -47.68879058 114.17587181 -47.69140625 112.37890625 C-47.81377778 108.05725915 -47.98075613 104.90439289 -50.74609375 101.453125 C-52.8979033 99.44185453 -54.65098752 97.88748675 -57.25 96.5625 C-58.301875 96.02625 -59.35375 95.49 -60.4375 94.9375 C-60.7421875 92.6328125 -60.7421875 92.6328125 -60.4375 89.9375 C-58.3203125 88.2421875 -58.3203125 88.2421875 -55.5625 86.8125 C-51.37744369 84.62000428 -51.37744369 84.62000428 -48.4375 80.9375 C-48.22075411 78.45598077 -48.11264192 76.07724474 -48.09375 73.59375 C-48.0791272 72.86941772 -48.06450439 72.14508545 -48.04943848 71.39880371 C-48.00297362 69.07842587 -47.96882078 66.75812856 -47.9375 64.4375 C-47.58638738 38.89810799 -47.58638738 38.89810799 -42.5 29.8125 C-40.63514241 26.32152262 -39.02157572 23.0389715 -37.875 19.25 C-35.16940757 10.66674127 -31.35373264 4.51032378 -23.4375 -0.0625 C-16.07721797 -3.59056907 -7.3795495 -3.39906523 0 0 Z M-24.3125 10.3125 C-31.23900546 18.86877145 -30.6197765 26.72429033 -30.625 37.375 C-30.63724609 38.68533203 -30.64949219 39.99566406 -30.66210938 41.34570312 C-30.66404297 42.61220703 -30.66597656 43.87871094 -30.66796875 45.18359375 C-30.67207764 46.33529053 -30.67618652 47.4869873 -30.68041992 48.67358398 C-30.42845328 52.05905334 -29.6457562 54.77723811 -28.4375 57.9375 C-27.67566406 57.793125 -26.91382813 57.64875 -26.12890625 57.5 C-14.88721661 55.47902209 -5.69146624 55.98936365 5.5625 57.9375 C6.73655793 54.4153262 6.76207063 51.19168407 6.80078125 47.5234375 C6.808853 46.79436188 6.81692474 46.06528625 6.82524109 45.31411743 C6.83906528 43.76916874 6.84979489 42.22418971 6.85766602 40.67919922 C6.869144 39.11204977 6.88952925 37.54493813 6.91918945 35.97802734 C7.11418911 25.6702803 7.18112003 16.9857591 -0.125 9 C-8.55894119 3.74867813 -16.54375175 3.8948384 -24.3125 10.3125 Z M14.5625 41.9375 C14.47613281 42.97648437 14.38976562 44.01546875 14.30078125 45.0859375 C13.3406577 55.14609995 11.97430488 64.06873131 4.3125 71.375 C-2.21981283 76.33054767 -8.73661731 77.57335385 -16.796875 76.50390625 C-24.29431238 74.89572811 -29.14892073 71.24265259 -33.4375 64.9375 C-36.9379289 58.68673412 -37.53779275 51.97638615 -38.4375 44.9375 C-38.7675 44.9375 -39.0975 44.9375 -39.4375 44.9375 C-39.53677153 49.66969762 -39.60915633 54.40128213 -39.65722656 59.13427734 C-39.67727627 60.74245774 -39.70452364 62.35056583 -39.73925781 63.95849609 C-39.78807264 66.2772002 -39.81053428 68.59493625 -39.828125 70.9140625 C-39.85909271 71.98317368 -39.85909271 71.98317368 -39.89068604 73.07388306 C-39.89295271 78.17744228 -38.63628618 81.00743657 -35.4375 84.9375 C-33.12711154 86.6588159 -30.76463919 88.01845601 -28.265625 89.4453125 C-27.66234375 89.93773437 -27.0590625 90.43015625 -26.4375 90.9375 C-26.4375 92.2575 -26.4375 93.5775 -26.4375 94.9375 C-27.04078125 95.21722656 -27.6440625 95.49695313 -28.265625 95.78515625 C-29.06484375 96.18605469 -29.8640625 96.58695313 -30.6875 97 C-31.47640625 97.38285156 -32.2653125 97.76570313 -33.078125 98.16015625 C-36.88339817 101.02671137 -39.04731135 104.45254146 -39.78125 109.12670898 C-39.90126658 111.47328325 -39.88606311 113.77678805 -39.8125 116.125 C-39.81121094 116.91841797 -39.80992188 117.71183594 -39.80859375 118.52929688 C-39.77147648 124.04480647 -39.77147648 124.04480647 -37.4375 128.9375 C-35.06820966 130.12214517 -33.60278854 130.07658051 -30.95947266 130.09863281 C-30.03155914 130.10824036 -29.10364563 130.1178479 -28.14761353 130.12774658 C-27.14241669 130.13199646 -26.13721985 130.13624634 -25.1015625 130.140625 C-23.55521622 130.14917511 -23.55521622 130.14917511 -21.97763062 130.15789795 C-19.79369129 130.16735536 -17.60973766 130.17388486 -15.42578125 130.17773438 C-12.08308032 130.18744024 -8.74099403 130.21845715 -5.3984375 130.25 C-3.27864949 130.25652988 -1.15885708 130.26178041 0.9609375 130.265625 C1.96208588 130.2779718 2.96323425 130.2903186 3.99472046 130.30303955 C4.92893829 130.30003845 5.86315613 130.29703735 6.82568359 130.29394531 C7.64571869 130.29759094 8.46575378 130.30123657 9.31063843 130.30499268 C12.32345457 129.81331598 13.53867785 129.25846908 15.5625 126.9375 C15.94384067 124.09325556 16.06875421 121.63744012 16.01660156 118.79418945 C16.01718567 117.96469788 16.01776978 117.1352063 16.01837158 116.28057861 C16.01558326 113.53688815 15.98445665 110.79428207 15.953125 108.05078125 C15.94566526 106.14935398 15.93997107 104.24791903 15.93597412 102.34648132 C15.9206968 97.34035031 15.8813969 92.33468305 15.8371582 87.32873535 C15.79625073 82.22117385 15.77797278 77.11353746 15.7578125 72.00585938 C15.7149047 61.98286909 15.64662798 51.9602231 15.5625 41.9375 C15.2325 41.9375 14.9025 41.9375 14.5625 41.9375 Z M23.5625 61.9375 C23.5625 64.9075 23.5625 67.8775 23.5625 70.9375 C27.68653473 69.28893175 27.68653473 69.28893175 29.5625 65.9375 C28.27284824 64.56187146 26.93560707 63.22983607 25.5625 61.9375 C24.9025 61.9375 24.2425 61.9375 23.5625 61.9375 Z M-23.4375 64.9375 C-20.56508499 68.0080126 -18.70905715 69.71250767 -14.38671875 70.140625 C-9.32077343 70.24561869 -5.7782253 69.86748958 -1.4375 66.9375 C-1.1075 65.9475 -0.7775 64.9575 -0.4375 63.9375 C-7.93699129 62.21743319 -16.29268438 61.76202639 -23.4375 64.9375 Z M-43.4375 87.9375 C-45.0875 89.5875 -46.7375 91.2375 -48.4375 92.9375 C-46.4575 94.5875 -44.4775 96.2375 -42.4375 97.9375 C-41.1175 96.6175 -39.7975 95.2975 -38.4375 93.9375 C-39.80733503 90.77634224 -40.4265638 89.9447908 -43.4375 87.9375 Z " fill="#252525" transform="translate(134.4375,33.0625)"/>
<path d="M0 0 C3.40052677 3.11112023 4.82785111 4.92885135 5.5625 9.5 C4.89252167 13.66875405 3.74722382 15.80728042 1 19 C-2.09985526 20.92693706 -3.83174654 21.00600905 -7.5 20.875 C-11.31676375 19.92080906 -13.1992823 18.71834365 -16 16 C-17.60982835 12.78034329 -17.46076702 9.49144588 -17 6 C-15.17753798 2.21488658 -13.89759517 0.47871742 -10.1875 -1.5 C-6.083957 -2.14369302 -3.80932018 -1.66224881 0 0 Z M-7 6 C-7.99 6.99 -8.98 7.98 -10 9 C-9.34 10.32 -8.68 11.64 -8 13 C-6.35 12.67 -4.7 12.34 -3 12 C-3.33 10.35 -3.66 8.7 -4 7 C-4.99 6.67 -5.98 6.34 -7 6 Z " fill="#252525" transform="translate(84,47)"/>
<path d="M0 0 C1.875 1.125 1.875 1.125 3 3 C3.75757576 9.81818182 3.75757576 9.81818182 1.4375 13.4375 C-1.83565762 15.53567796 -4.11417724 16 -8 16 C-10.80189446 14.23358828 -12.51524911 12.96950178 -14 10 C-14.375 7.1875 -14.375 7.1875 -14 4 C-9.44313097 -1.54213801 -6.65025437 -2.77093932 0 0 Z M-6 6 C-6 6.66 -6 7.32 -6 8 C-5.34 7.67 -4.68 7.34 -4 7 C-4.66 6.67 -5.32 6.34 -6 6 Z " fill="#252525" transform="translate(173,126)"/>
<path d="M0 0 C1.32 0.66 2.64 1.32 4 2 C3.67 3.65 3.34 5.3 3 7 C1.02 7.66 -0.96 8.32 -3 9 C-2.49396008 6.83125748 -2.00016187 5.00032373 -1 3 C-0.34 3 0.32 3 1 3 C0.67 2.01 0.34 1.02 0 0 Z " fill="#1F1F1F" transform="translate(105,122)"/>
<path d="M0 0 C0.79921875 0.00902344 1.5984375 0.01804687 2.421875 0.02734375 C3.02515625 0.03894531 3.6284375 0.05054687 4.25 0.0625 C4.25 0.3925 4.25 0.7225 4.25 1.0625 C3.49074219 1.19527344 2.73148438 1.32804687 1.94921875 1.46484375 C0.95535156 1.64144531 -0.03851563 1.81804687 -1.0625 2 C-2.04863281 2.17402344 -3.03476563 2.34804687 -4.05078125 2.52734375 C-6.83189213 3.01996847 -6.83189213 3.01996847 -9.75 4.0625 C-9.42 3.0725 -9.09 2.0825 -8.75 1.0625 C-5.8585914 -0.0569613 -3.07237388 -0.04518197 0 0 Z " fill="#191919" transform="translate(118.75,94.9375)"/>
<path d="M0 0 C-2.2386565 2.2386565 -4.06570533 2.8996395 -7 4 C-7.99 4.495 -7.99 4.495 -9 5 C-9.66 4.34 -10.32 3.68 -11 3 C-9.73581754 2.30034557 -8.46334598 1.61565237 -7.1875 0.9375 C-6.47980469 0.55464844 -5.77210937 0.17179687 -5.04296875 -0.22265625 C-3 -1 -3 -1 0 0 Z " fill="#1D1D1D" transform="translate(119,32)"/>
<path d="M0 0 C2.4375 0.75 2.4375 0.75 5 2 C5.8125 4.125 5.8125 4.125 6 6 C5.01 6 4.02 6 3 6 C0.8125 3.5 0.8125 3.5 -1 1 C-0.67 0.67 -0.34 0.34 0 0 Z " fill="#2B2B2B" transform="translate(100,119)"/>
</svg>
